{
	"asset":{
		"generator":"Khronos glTF Blender I/O v5.1.20",
		"version":"2.0"
	},
	"scene":0,
	"scenes":[
		{
			"name":"Scene",
			"nodes":[
				0,
				1
			]
		}
	],
	"nodes":[
		{
			"mesh":0,
			"name":"_(Loose Entity)",
			"rotation":[
				0.09903770685195923,
				0.9942599534988403,
				0.029079807922244072,
				0.02816178649663925
			],
			"translation":[
				0.08608345687389374,
				1.4246373176574707,
				0.03405696153640747
			]
		},
		{
			"mesh":1,
			"name":"C-hull",
			"rotation":[
				0.09903772175312042,
				0.9942599534988403,
				0.029079820960760117,
				0.028161831200122833
			],
			"translation":[
				0.06028424948453903,
				0.896903395652771,
				-0.8556870222091675
			]
		}
	],
	"materials":[
		{
			"doubleSided":true,
			"name":"DefaultMaterial",
			"pbrMetallicRoughness":{
				"baseColorFactor":[
					0.800000011920929,
					0.800000011920929,
					0.800000011920929,
					1
				],
				"metallicFactor":0,
				"roughnessFactor":0.5
			}
		},
		{
			"doubleSided":true,
			"name":"[Metal_Aluminum_Anodized]",
			"pbrMetallicRoughness":{
				"baseColorTexture":{
					"index":0
				},
				"metallicFactor":0,
				"roughnessFactor":0.5
			}
		},
		{
			"doubleSided":true,
			"name":"[Color_A06]",
			"pbrMetallicRoughness":{
				"baseColorFactor":[
					0.6120656132698059,
					0,
					0,
					1
				],
				"metallicFactor":0,
				"roughnessFactor":0.5
			}
		},
		{
			"doubleSided":true,
			"name":"[Color_000]",
			"pbrMetallicRoughness":{
				"metallicFactor":0,
				"roughnessFactor":0.5
			}
		},
		{
			"doubleSided":true,
			"name":"[Metal_Aluminum_Anodized]1",
			"pbrMetallicRoughness":{
				"baseColorTexture":{
					"index":1
				},
				"metallicFactor":0,
				"roughnessFactor":0.5
			}
		},
		{
			"doubleSided":true,
			"name":"*11",
			"pbrMetallicRoughness":{
				"baseColorTexture":{
					"index":2
				},
				"metallicFactor":0,
				"roughnessFactor":0.5
			}
		},
		{
			"doubleSided":true,
			"name":"black",
			"pbrMetallicRoughness":{
				"baseColorFactor":[
					0,
					0,
					0,
					1
				],
				"metallicFactor":0,
				"roughnessFactor":0.5
			}
		},
		{
			"doubleSided":true,
			"name":"*7",
			"pbrMetallicRoughness":{
				"baseColorTexture":{
					"index":3
				},
				"metallicFactor":0,
				"roughnessFactor":0.5
			}
		},
		{
			"doubleSided":true,
			"name":"*9",
			"pbrMetallicRoughness":{
				"baseColorFactor":[
					0.044552627950906754,
					0.18698850274085999,
					0.6120656132698059,
					1
				],
				"metallicFactor":0,
				"roughnessFactor":0.5
			}
		},
		{
			"doubleSided":true,
			"name":"[Color_001]",
			"pbrMetallicRoughness":{
				"baseColorFactor":[
					0.7667436003684998,
					0.7667436003684998,
					0.7667436003684998,
					1
				],
				"metallicFactor":0,
				"roughnessFactor":0.5
			}
		}
	],
	"meshes":[
		{
			"name":"_(Loose Entity)",
			"primitives":[
				{
					"attributes":{
						"POSITION":0,
						"NORMAL":1,
						"TEXCOORD_0":2
					},
					"indices":3,
					"material":0
				},
				{
					"attributes":{
						"POSITION":4,
						"NORMAL":5,
						"TEXCOORD_0":6
					},
					"indices":7,
					"material":1
				},
				{
					"attributes":{
						"POSITION":8,
						"NORMAL":9,
						"TEXCOORD_0":10
					},
					"indices":11,
					"material":2
				},
				{
					"attributes":{
						"POSITION":12,
						"NORMAL":13,
						"TEXCOORD_0":14
					},
					"indices":15,
					"material":3
				},
				{
					"attributes":{
						"POSITION":16,
						"NORMAL":17,
						"TEXCOORD_0":18
					},
					"indices":19,
					"material":4
				},
				{
					"attributes":{
						"POSITION":20,
						"NORMAL":21,
						"TEXCOORD_0":22
					},
					"indices":23,
					"material":5
				},
				{
					"attributes":{
						"POSITION":24,
						"NORMAL":25,
						"TEXCOORD_0":26
					},
					"indices":27,
					"material":6
				}
			]
		},
		{
			"name":"C-hull",
			"primitives":[
				{
					"attributes":{
						"POSITION":28,
						"NORMAL":29,
						"TEXCOORD_0":30
					},
					"indices":31,
					"material":4
				},
				{
					"attributes":{
						"POSITION":32,
						"NORMAL":33,
						"TEXCOORD_0":34
					},
					"indices":35,
					"material":7
				},
				{
					"attributes":{
						"POSITION":36,
						"NORMAL":37,
						"TEXCOORD_0":38
					},
					"indices":39,
					"material":8
				},
				{
					"attributes":{
						"POSITION":40,
						"NORMAL":41,
						"TEXCOORD_0":42
					},
					"indices":43,
					"material":9
				},
				{
					"attributes":{
						"POSITION":44,
						"NORMAL":45,
						"TEXCOORD_0":46
					},
					"indices":47,
					"material":1
				}
			]
		}
	],
	"textures":[
		{
			"sampler":0,
			"source":0
		},
		{
			"sampler":0,
			"source":0
		},
		{
			"sampler":0,
			"source":1
		},
		{
			"sampler":0,
			"source":2
		}
	],
	"images":[
		{
			"mimeType":"image/jpeg",
			"name":"Metal_Aluminum_Anodized",
			"uri":"Metal_Aluminum_Anodized.jpg"
		},
		{
			"mimeType":"image/jpeg",
			"name":"Wood_Bamboo_Medium",
			"uri":"Wood_Bamboo_Medium.jpg"
		},
		{
			"mimeType":"image/jpeg",
			"name":"Carpet_Plush_Charcoal",
			"uri":"Carpet_Plush_Charcoal.jpg"
		}
	],
	"accessors":[
		{
			"bufferView":0,
			"componentType":5126,
			"count":574,
			"max":[
				1.2964422702789307,
				6.066281318664551,
				3.1207211017608643
			],
			"min":[
				-0.06856073439121246,
				-0.9641172885894775,
				-1.5505138635635376
			],
			"type":"VEC3"
		},
		{
			"bufferView":1,
			"componentType":5126,
			"count":574,
			"type":"VEC3"
		},
		{
			"bufferView":2,
			"componentType":5126,
			"count":574,
			"type":"VEC2"
		},
		{
			"bufferView":3,
			"componentType":5123,
			"count":783,
			"type":"SCALAR"
		},
		{
			"bufferView":4,
			"componentType":5126,
			"count":785,
			"max":[
				1.313762903213501,
				6.063780784606934,
				1.8138985633850098
			],
			"min":[
				-0.2531701326370239,
				-0.763718843460083,
				-0.5860943794250488
			],
			"type":"VEC3"
		},
		{
			"bufferView":5,
			"componentType":5126,
			"count":785,
			"type":"VEC3"
		},
		{
			"bufferView":6,
			"componentType":5126,
			"count":785,
			"type":"VEC2"
		},
		{
			"bufferView":7,
			"componentType":5123,
			"count":1167,
			"type":"SCALAR"
		},
		{
			"bufferView":8,
			"componentType":5126,
			"count":7,
			"max":[
				0.0029173954389989376,
				6.063780784606934,
				1.731259822845459
			],
			"min":[
				-0.02890242449939251,
				6.015030860900879,
				1.6994400024414062
			],
			"type":"VEC3"
		},
		{
			"bufferView":9,
			"componentType":5126,
			"count":7,
			"type":"VEC3"
		},
		{
			"bufferView":10,
			"componentType":5126,
			"count":7,
			"type":"VEC2"
		},
		{
			"bufferView":11,
			"componentType":5123,
			"count":9,
			"type":"SCALAR"
		},
		{
			"bufferView":12,
			"componentType":5126,
			"count":39,
			"max":[
				1.0456441640853882,
				5.966280937194824,
				3.2261533737182617
			],
			"min":[
				-0.033171311020851135,
				-0.3959944248199463,
				0.053377363830804825
			],
			"type":"VEC3"
		},
		{
			"bufferView":13,
			"componentType":5126,
			"count":39,
			"type":"VEC3"
		},
		{
			"bufferView":14,
			"componentType":5126,
			"count":39,
			"type":"VEC2"
		},
		{
			"bufferView":15,
			"componentType":5123,
			"count":39,
			"type":"SCALAR"
		},
		{
			"bufferView":16,
			"componentType":5126,
			"count":638,
			"max":[
				-0.018166912719607353,
				-0.3991185426712036,
				-0.5905382633209229
			],
			"min":[
				-0.04816688597202301,
				-0.5941174030303955,
				-1.5505133867263794
			],
			"type":"VEC3"
		},
		{
			"bufferView":17,
			"componentType":5126,
			"count":638,
			"type":"VEC3"
		},
		{
			"bufferView":18,
			"componentType":5126,
			"count":638,
			"type":"VEC2"
		},
		{
			"bufferView":19,
			"componentType":5123,
			"count":1050,
			"type":"SCALAR"
		},
		{
			"bufferView":20,
			"componentType":5126,
			"count":722,
			"max":[
				-0.023159636184573174,
				-0.3555769920349121,
				1.504401683807373
			],
			"min":[
				-0.04317273199558258,
				-1.6455769538879395,
				-1.5505133867263794
			],
			"type":"VEC3"
		},
		{
			"bufferView":21,
			"componentType":5126,
			"count":722,
			"type":"VEC3"
		},
		{
			"bufferView":22,
			"componentType":5126,
			"count":722,
			"type":"VEC2"
		},
		{
			"bufferView":23,
			"componentType":5123,
			"count":1143,
			"type":"SCALAR"
		},
		{
			"bufferView":24,
			"componentType":5126,
			"count":603,
			"max":[
				-0.018166912719607353,
				-0.3991185426712036,
				-0.5556087493896484
			],
			"min":[
				-0.04816688597202301,
				-0.4441184997558594,
				-1.3605386018753052
			],
			"type":"VEC3"
		},
		{
			"bufferView":25,
			"componentType":5126,
			"count":603,
			"type":"VEC3"
		},
		{
			"bufferView":26,
			"componentType":5126,
			"count":603,
			"type":"VEC2"
		},
		{
			"bufferView":27,
			"componentType":5123,
			"count":918,
			"type":"SCALAR"
		},
		{
			"bufferView":28,
			"componentType":5126,
			"count":982,
			"max":[
				0.7395313382148743,
				0.18194590508937836,
				2.402125358581543
			],
			"min":[
				-0.7362698912620544,
				-0.2157786339521408,
				-2.258873462677002
			],
			"type":"VEC3"
		},
		{
			"bufferView":29,
			"componentType":5126,
			"count":982,
			"type":"VEC3"
		},
		{
			"bufferView":30,
			"componentType":5126,
			"count":982,
			"type":"VEC2"
		},
		{
			"bufferView":31,
			"componentType":5123,
			"count":1920,
			"type":"SCALAR"
		},
		{
			"bufferView":32,
			"componentType":5126,
			"count":359,
			"max":[
				0.1970156580209732,
				0.10382281988859177,
				0.9147133827209473
			],
			"min":[
				-0.18466638028621674,
				-0.028355669230222702,
				-2.258873462677002
			],
			"type":"VEC3"
		},
		{
			"bufferView":33,
			"componentType":5126,
			"count":359,
			"type":"VEC3"
		},
		{
			"bufferView":34,
			"componentType":5126,
			"count":359,
			"type":"VEC2"
		},
		{
			"bufferView":35,
			"componentType":5123,
			"count":417,
			"type":"SCALAR"
		},
		{
			"bufferView":36,
			"componentType":5126,
			"count":944,
			"max":[
				0.804612934589386,
				0.16385017335414886,
				1.4368786811828613
			],
			"min":[
				-0.8012691140174866,
				0.012433100491762161,
				-2.2437663078308105
			],
			"type":"VEC3"
		},
		{
			"bufferView":37,
			"componentType":5126,
			"count":944,
			"type":"VEC3"
		},
		{
			"bufferView":38,
			"componentType":5126,
			"count":944,
			"type":"VEC2"
		},
		{
			"bufferView":39,
			"componentType":5123,
			"count":1227,
			"type":"SCALAR"
		},
		{
			"bufferView":40,
			"componentType":5126,
			"count":9739,
			"max":[
				0.8370140194892883,
				0.21382282674312592,
				2.456233501434326
			],
			"min":[
				-0.8336701989173889,
				-0.23617739975452423,
				-2.2637667655944824
			],
			"type":"VEC3"
		},
		{
			"bufferView":41,
			"componentType":5126,
			"count":9739,
			"type":"VEC3"
		},
		{
			"bufferView":42,
			"componentType":5126,
			"count":9739,
			"type":"VEC2"
		},
		{
			"bufferView":43,
			"componentType":5123,
			"count":12309,
			"type":"SCALAR"
		},
		{
			"bufferView":44,
			"componentType":5126,
			"count":84,
			"max":[
				0.006670190952718258,
				0.07382284849882126,
				-2.243873119354248
			],
			"min":[
				-0.0033280113711953163,
				0.0538228340446949,
				-2.258873462677002
			],
			"type":"VEC3"
		},
		{
			"bufferView":45,
			"componentType":5126,
			"count":84,
			"type":"VEC3"
		},
		{
			"bufferView":46,
			"componentType":5126,
			"count":84,
			"type":"VEC2"
		},
		{
			"bufferView":47,
			"componentType":5123,
			"count":150,
			"type":"SCALAR"
		}
	],
	"bufferViews":[
		{
			"buffer":0,
			"byteLength":6888,
			"byteOffset":0,
			"target":34962
		},
		{
			"buffer":0,
			"byteLength":6888,
			"byteOffset":6888,
			"target":34962
		},
		{
			"buffer":0,
			"byteLength":4592,
			"byteOffset":13776,
			"target":34962
		},
		{
			"buffer":0,
			"byteLength":1566,
			"byteOffset":18368,
			"target":34963
		},
		{
			"buffer":0,
			"byteLength":9420,
			"byteOffset":19936,
			"target":34962
		},
		{
			"buffer":0,
			"byteLength":9420,
			"byteOffset":29356,
			"target":34962
		},
		{
			"buffer":0,
			"byteLength":6280,
			"byteOffset":38776,
			"target":34962
		},
		{
			"buffer":0,
			"byteLength":2334,
			"byteOffset":45056,
			"target":34963
		},
		{
			"buffer":0,
			"byteLength":84,
			"byteOffset":47392,
			"target":34962
		},
		{
			"buffer":0,
			"byteLength":84,
			"byteOffset":47476,
			"target":34962
		},
		{
			"buffer":0,
			"byteLength":56,
			"byteOffset":47560,
			"target":34962
		},
		{
			"buffer":0,
			"byteLength":18,
			"byteOffset":47616,
			"target":34963
		},
		{
			"buffer":0,
			"byteLength":468,
			"byteOffset":47636,
			"target":34962
		},
		{
			"buffer":0,
			"byteLength":468,
			"byteOffset":48104,
			"target":34962
		},
		{
			"buffer":0,
			"byteLength":312,
			"byteOffset":48572,
			"target":34962
		},
		{
			"buffer":0,
			"byteLength":78,
			"byteOffset":48884,
			"target":34963
		},
		{
			"buffer":0,
			"byteLength":7656,
			"byteOffset":48964,
			"target":34962
		},
		{
			"buffer":0,
			"byteLength":7656,
			"byteOffset":56620,
			"target":34962
		},
		{
			"buffer":0,
			"byteLength":5104,
			"byteOffset":64276,
			"target":34962
		},
		{
			"buffer":0,
			"byteLength":2100,
			"byteOffset":69380,
			"target":34963
		},
		{
			"buffer":0,
			"byteLength":8664,
			"byteOffset":71480,
			"target":34962
		},
		{
			"buffer":0,
			"byteLength":8664,
			"byteOffset":80144,
			"target":34962
		},
		{
			"buffer":0,
			"byteLength":5776,
			"byteOffset":88808,
			"target":34962
		},
		{
			"buffer":0,
			"byteLength":2286,
			"byteOffset":94584,
			"target":34963
		},
		{
			"buffer":0,
			"byteLength":7236,
			"byteOffset":96872,
			"target":34962
		},
		{
			"buffer":0,
			"byteLength":7236,
			"byteOffset":104108,
			"target":34962
		},
		{
			"buffer":0,
			"byteLength":4824,
			"byteOffset":111344,
			"target":34962
		},
		{
			"buffer":0,
			"byteLength":1836,
			"byteOffset":116168,
			"target":34963
		},
		{
			"buffer":0,
			"byteLength":11784,
			"byteOffset":118004,
			"target":34962
		},
		{
			"buffer":0,
			"byteLength":11784,
			"byteOffset":129788,
			"target":34962
		},
		{
			"buffer":0,
			"byteLength":7856,
			"byteOffset":141572,
			"target":34962
		},
		{
			"buffer":0,
			"byteLength":3840,
			"byteOffset":149428,
			"target":34963
		},
		{
			"buffer":0,
			"byteLength":4308,
			"byteOffset":153268,
			"target":34962
		},
		{
			"buffer":0,
			"byteLength":4308,
			"byteOffset":157576,
			"target":34962
		},
		{
			"buffer":0,
			"byteLength":2872,
			"byteOffset":161884,
			"target":34962
		},
		{
			"buffer":0,
			"byteLength":834,
			"byteOffset":164756,
			"target":34963
		},
		{
			"buffer":0,
			"byteLength":11328,
			"byteOffset":165592,
			"target":34962
		},
		{
			"buffer":0,
			"byteLength":11328,
			"byteOffset":176920,
			"target":34962
		},
		{
			"buffer":0,
			"byteLength":7552,
			"byteOffset":188248,
			"target":34962
		},
		{
			"buffer":0,
			"byteLength":2454,
			"byteOffset":195800,
			"target":34963
		},
		{
			"buffer":0,
			"byteLength":116868,
			"byteOffset":198256,
			"target":34962
		},
		{
			"buffer":0,
			"byteLength":116868,
			"byteOffset":315124,
			"target":34962
		},
		{
			"buffer":0,
			"byteLength":77912,
			"byteOffset":431992,
			"target":34962
		},
		{
			"buffer":0,
			"byteLength":24618,
			"byteOffset":509904,
			"target":34963
		},
		{
			"buffer":0,
			"byteLength":1008,
			"byteOffset":534524,
			"target":34962
		},
		{
			"buffer":0,
			"byteLength":1008,
			"byteOffset":535532,
			"target":34962
		},
		{
			"buffer":0,
			"byteLength":672,
			"byteOffset":536540,
			"target":34962
		},
		{
			"buffer":0,
			"byteLength":300,
			"byteOffset":537212,
			"target":34963
		}
	],
	"samplers":[
		{
			"magFilter":9729,
			"minFilter":9987
		}
	],
	"buffers":[
		{
			"byteLength":537512,
			"uri":"470.bin"
		}
	]
}
