{"asset":{"version":"2.0","generator":"babylon.js glTF exporter for Maya 2018 v20200225.2"},"scene":0,"scenes":[{"nodes":[0,12],"extensions":{}}],"nodes":[{"children":[1,2,5,8,10,11],"rotation":[-0.5,0.5,0.5,0.5],"name":"AC75_babylon"},{"mesh":0,"name":"b_hull_MERGED"},{"children":[3],"translation":[1.5,2.05000019,0.52],"name":"b_PrtFo_LOC"},{"children":[4],"mesh":1,"name":"b_PrtFoilHinge"},{"mesh":2,"name":"b_PrtFoil"},{"children":[6],"translation":[1.5,-2.05,0.52],"rotation":[0.0,0.0,1.0,6.123234E-17],"name":"b_Stb_Fo_LOC"},{"children":[7],"mesh":3,"translation":[-11.0,-2.05,-0.52],"name":"b_Stb_FoilHinge"},{"mesh":4,"translation":[-2.36468614E-13,1.267324E-12,0.0],"name":"b_Stb_Foil"},{"children":[9],"translation":[-8.969931,0.0,0.0],"name":"b_Rudder_LOC"},{"mesh":5,"translation":[-0.530069351,0.0,0.0],"name":"b_Rudder"},{"mesh":6,"name":"b_jibBlend","extras":{"MaxHandle":1650}},{"mesh":7,"name":"b_mainsail_curl_sweep"},{"name":"Default light"}],"meshes":[{"primitives":[{"attributes":{"POSITION":1,"NORMAL":2,"TEXCOORD_0":3},"indices":0,"material":0}],"name":"b_hull_MERGED"},{"primitives":[{"attributes":{"POSITION":5,"NORMAL":6,"TEXCOORD_0":7},"indices":4,"material":0}],"name":"b_PrtFoilHinge"},{"primitives":[{"attributes":{"POSITION":9,"NORMAL":10,"TEXCOORD_0":11},"indices":8,"material":0}],"name":"b_PrtFoil"},{"primitives":[{"attributes":{"POSITION":13,"NORMAL":14,"TEXCOORD_0":15},"indices":12,"material":0}],"name":"b_Stb_FoilHinge"},{"primitives":[{"attributes":{"POSITION":17,"NORMAL":18,"TEXCOORD_0":19},"indices":16,"material":0}],"name":"b_Stb_Foil"},{"primitives":[{"attributes":{"POSITION":21,"NORMAL":22,"TEXCOORD_0":23},"indices":20,"material":0}],"name":"b_Rudder"},{"primitives":[{"attributes":{"POSITION":25,"NORMAL":26,"TEXCOORD_0":27},"indices":24,"material":0,"targets":[{"POSITION":28},{"POSITION":29},{"POSITION":30},{"POSITION":31},{"POSITION":32},{"POSITION":33},{"POSITION":34},{"POSITION":35},{"POSITION":36},{"POSITION":37}]}],"weights":[0.0,0.0,0.0,0.0,0.0,0.0,0.0,0.0,0.0,0.0],"name":"b_jibBlend"},{"primitives":[{"attributes":{"POSITION":39,"NORMAL":40,"TEXCOORD_0":41,"TEXCOORD_1":42},"indices":38,"material":0,"targets":[{"POSITION":43},{"POSITION":44},{"POSITION":45},{"POSITION":46},{"POSITION":47},{"POSITION":48},{"POSITION":49},{"POSITION":50},{"POSITION":51},{"POSITION":52}]}],"weights":[0.0,0.0,0.0,0.0,0.0,0.0,0.0,0.0,0.0,0.0],"name":"b_mainsail_curl_sweep"}],"accessors":[{"bufferView":0,"componentType":5123,"count":66186,"type":"SCALAR","name":"accessorIndices"},{"bufferView":1,"componentType":5126,"count":19386,"max":[13.3507519,2.52221727,27.6071873],"min":[-10.0339994,-2.52221727,-0.4237587],"type":"VEC3","name":"accessorPositions"},{"bufferView":1,"byteOffset":232632,"componentType":5126,"count":19386,"type":"VEC3","name":"accessorNormals"},{"bufferView":2,"componentType":5126,"count":19386,"type":"VEC2","name":"accessorUVs"},{"bufferView":0,"byteOffset":132372,"componentType":5123,"count":1200,"type":"SCALAR","name":"accessorIndices"},{"bufferView":1,"byteOffset":465264,"componentType":5126,"count":250,"max":[0.7239392,0.175132751,0.175132588],"min":[-0.7247021,-0.175132141,-0.175132677],"type":"VEC3","name":"accessorPositions"},{"bufferView":1,"byteOffset":468264,"componentType":5126,"count":250,"type":"VEC3","name":"accessorNormals"},{"bufferView":2,"byteOffset":155088,"componentType":5126,"count":250,"type":"VEC2","name":"accessorUVs"},{"bufferView":0,"byteOffset":134772,"componentType":5123,"count":4116,"type":"SCALAR","name":"accessorIndices"},{"bufferView":1,"byteOffset":471264,"componentType":5126,"count":817,"max":[0.423475951,5.256023,-0.0334188826],"min":[-0.4234668,0.08120056,-3.22062588],"type":"VEC3","name":"accessorPositions"},{"bufferView":1,"byteOffset":481068,"componentType":5126,"count":817,"type":"VEC3","name":"accessorNormals"},{"bufferView":2,"byteOffset":157088,"componentType":5126,"count":817,"type":"VEC2","name":"accessorUVs"},{"bufferView":0,"byteOffset":143004,"componentType":5123,"count":1200,"type":"SCALAR","name":"accessorIndices"},{"bufferView":1,"byteOffset":490872,"componentType":5126,"count":250,"max":[11.72394,2.225133,0.695132554],"min":[10.2752991,1.87486792,0.344867319],"type":"VEC3","name":"accessorPositions"},{"bufferView":1,"byteOffset":493872,"componentType":5126,"count":250,"type":"VEC3","name":"accessorNormals"},{"bufferView":2,"byteOffset":163624,"componentType":5126,"count":250,"type":"VEC2","name":"accessorUVs"},{"bufferView":0,"byteOffset":145404,"componentType":5123,"count":4116,"type":"SCALAR","name":"accessorIndices"},{"bufferView":1,"byteOffset":496872,"componentType":5126,"count":817,"max":[11.4227,7.30602264,0.4865534],"min":[10.575757,2.13120055,-2.70065355],"type":"VEC3","name":"accessorPositions"},{"bufferView":1,"byteOffset":506676,"componentType":5126,"count":817,"type":"VEC3","name":"accessorNormals"},{"bufferView":2,"byteOffset":165624,"componentType":5126,"count":817,"type":"VEC2","name":"accessorUVs"},{"bufferView":0,"byteOffset":153636,"componentType":5123,"count":3006,"type":"SCALAR","name":"accessorIndices"},{"bufferView":1,"byteOffset":516480,"componentType":5126,"count":631,"max":[0.7597804,1.30007493,-0.0198225714],"min":[0.286479861,-1.30007493,-3.05645],"type":"VEC3","name":"accessorPositions"},{"bufferView":1,"byteOffset":524052,"componentType":5126,"count":631,"type":"VEC3","name":"accessorNormals"},{"bufferView":2,"byteOffset":172160,"componentType":5126,"count":631,"type":"VEC2","name":"accessorUVs"},{"bufferView":0,"byteOffset":159648,"componentType":5123,"count":2010,"type":"SCALAR","name":"accessorIndices"},{"bufferView":1,"byteOffset":531624,"componentType":5126,"count":404,"max":[7.91021967,1.48398316,23.7854443],"min":[-1.26576054,-0.0001208496,1.32566857],"type":"VEC3","name":"accessorPositions"},{"bufferView":1,"byteOffset":536472,"componentType":5126,"count":404,"type":"VEC3","name":"accessorNormals"},{"bufferView":2,"byteOffset":177208,"componentType":5126,"count":404,"type":"VEC2","name":"accessorUVs"},{"bufferView":1,"byteOffset":541320,"componentType":5126,"count":404,"max":[0.7184204,0.118077993,0.285905123],"min":[0.0122144222,-0.5351703,0.004880905],"type":"VEC3","name":"accessorTargetPositions"},{"bufferView":1,"byteOffset":546168,"componentType":5126,"count":404,"max":[2.385288,0.298126936,0.9539795],"min":[0.0103981495,-1.288733,0.004172325],"type":"VEC3","name":"accessorTargetPositions"},{"bufferView":1,"byteOffset":551016,"componentType":5126,"count":404,"max":[4.260341,0.390241742,1.71130252],"min":[0.011660099,-1.5044415,0.00468444824],"type":"VEC3","name":"accessorTargetPositions"},{"bufferView":1,"byteOffset":555864,"componentType":5126,"count":404,"max":[5.787553,-0.0139782708,2.3306725],"min":[0.0107104778,-1.50308108,0.004272461],"type":"VEC3","name":"accessorTargetPositions"},{"bufferView":1,"byteOffset":560712,"componentType":5126,"count":404,"max":[6.296683,0.0232562255,2.49143672],"min":[0.007965088,-1.47181642,0.003168106],"type":"VEC3","name":"accessorTargetPositions"},{"bufferView":1,"byteOffset":565560,"componentType":5126,"count":404,"max":[5.787554,0.0204089358,2.3306725],"min":[0.0107104778,-1.46844721,0.004272461],"type":"VEC3","name":"accessorTargetPositions"},{"bufferView":1,"byteOffset":570408,"componentType":5126,"count":404,"max":[4.260341,0.01868164,1.71130252],"min":[0.0116589069,-2.04214,0.004682541],"type":"VEC3","name":"accessorTargetPositions"},{"bufferView":1,"byteOffset":575256,"componentType":5126,"count":404,"max":[2.385288,0.01876953,0.9539795],"min":[0.0103976727,-2.66176,0.004172325],"type":"VEC3","name":"accessorTargetPositions"},{"bufferView":1,"byteOffset":580104,"componentType":5126,"count":404,"max":[0.718421,0.0182171632,0.285905123],"min":[0.0122144222,-3.02810359,0.004878998],"type":"VEC3","name":"accessorTargetPositions"},{"bufferView":1,"byteOffset":584952,"componentType":5126,"count":404,"max":[9.536743E-07,0.000242309558,3.81469727E-06],"min":[-9.536743E-07,-2.96796632,-1.90734863E-06],"type":"VEC3","name":"accessorTargetPositions"},{"bufferView":0,"byteOffset":163668,"componentType":5123,"count":10074,"type":"SCALAR","name":"accessorIndices"},{"bufferView":1,"byteOffset":589800,"componentType":5126,"count":2279,"max":[0.167362109,2.30121827,27.9366016],"min":[-7.705808,-2.30121827,0.8583546],"type":"VEC3","name":"accessorPositions"},{"bufferView":1,"byteOffset":617148,"componentType":5126,"count":2279,"type":"VEC3","name":"accessorNormals"},{"bufferView":2,"byteOffset":180440,"componentType":5126,"count":2279,"type":"VEC2","name":"accessorUVs"},{"bufferView":2,"byteOffset":198672,"componentType":5126,"count":2279,"type":"VEC2","name":"accessorUV2s"},{"bufferView":1,"byteOffset":644496,"componentType":5126,"count":2279,"max":[8.428097E-05,0.000191353261,0.000113487244],"min":[-0.00258779526,-0.0069372654,-0.0005130768],"type":"VEC3","name":"accessorTargetPositions"},{"bufferView":1,"byteOffset":671844,"componentType":5126,"count":2279,"max":[0.001180768,0.00268805772,0.00144433975],"min":[-0.03654957,-0.09417021,-0.00682449341],"type":"VEC3","name":"accessorTargetPositions"},{"bufferView":1,"byteOffset":699192,"componentType":5126,"count":2279,"max":[0.00518357754,0.0119147561,0.00527763367],"min":[-0.151682377,-0.4003657,-0.0266017914],"type":"VEC3","name":"accessorTargetPositions"},{"bufferView":1,"byteOffset":726540,"componentType":5126,"count":2279,"max":[0.0142647624,0.03271918,0.0104036331],"min":[-0.323642731,-1.05984938,-0.05659294],"type":"VEC3","name":"accessorTargetPositions"},{"bufferView":1,"byteOffset":753888,"componentType":5126,"count":2279,"max":[0.03151512,0.06840334,0.013402462],"min":[-0.427248955,-2.12628579,-0.07279396],"type":"VEC3","name":"accessorTargetPositions"},{"bufferView":1,"byteOffset":781236,"componentType":5126,"count":2279,"max":[0.05458939,0.104087517,0.0126991272],"min":[-0.339744568,-3.19055033,-0.05627823],"type":"VEC3","name":"accessorTargetPositions"},{"bufferView":1,"byteOffset":808584,"componentType":5126,"count":2279,"max":[0.0728911161,0.124891981,0.0116205215],"min":[-0.197065353,-3.843345,-0.0301818848],"type":"VEC3","name":"accessorTargetPositions"},{"bufferView":1,"byteOffset":835932,"componentType":5126,"count":2279,"max":[0.08225298,0.1341187,0.0132119656],"min":[-0.124043226,-4.1455636,-0.01843071],"type":"VEC3","name":"accessorTargetPositions"},{"bufferView":1,"byteOffset":863280,"componentType":5126,"count":2279,"max":[0.0965082645,0.13661541,0.0137637854],"min":[-0.107192039,-4.231147,-0.01508522],"type":"VEC3","name":"accessorTargetPositions"},{"bufferView":1,"byteOffset":890628,"componentType":5126,"count":2279,"max":[0.0980370045,0.136806771,0.0138070583],"min":[-0.105865955,-4.23792553,-0.0148086548],"type":"VEC3","name":"accessorTargetPositions"},{"bufferView":3,"componentType":5126,"count":2,"max":[80.0],"min":[0.0],"type":"SCALAR","name":"accessorAnimationInput"},{"bufferView":3,"byteOffset":8,"componentType":5126,"count":20,"type":"SCALAR","name":"accessorAnimationWeights"},{"bufferView":3,"byteOffset":88,"componentType":5126,"count":2,"max":[80.0],"min":[0.0],"type":"SCALAR","name":"accessorAnimationInput"},{"bufferView":3,"byteOffset":96,"componentType":5126,"count":20,"type":"SCALAR","name":"accessorAnimationWeights"}],"bufferViews":[{"buffer":0,"byteLength":183816,"name":"bufferViewScalar"},{"buffer":0,"byteOffset":183816,"byteLength":917976,"byteStride":12,"name":"bufferViewFloatVec3"},{"buffer":0,"byteOffset":1101792,"byteLength":216904,"byteStride":8,"name":"bufferViewFloatVec2"},{"buffer":0,"byteOffset":1318696,"byteLength":176,"name":"bufferViewAnimationFloatScalar"}],"buffers":[{"uri":"AC75_gen.bin","byteLength":1318872}],"materials":[{"pbrMetallicRoughness":{"baseColorTexture":{"index":1},"metallicRoughnessTexture":{"index":2}},"normalTexture":{"index":0},"name":"AC75_Boat_SR_PBS"}],"textures":[{"sampler":0,"source":0,"name":"AC75_N.png"},{"sampler":0,"source":1,"name":"AC75_2019_TNZ.jpg"},{"sampler":0,"source":2,"name":"AC75_RM.png"}],"images":[{"uri":"AC75_N.png"},{"uri":"AC75_2019_TNZ.jpg"},{"uri":"AC75_RM.png"}],"samplers":[{"magFilter":9729,"minFilter":9987}],"animations":[{"channels":[{"sampler":0,"target":{"node":10,"path":"weights"}},{"sampler":1,"target":{"node":11,"path":"weights"}}],"samplers":[{"input":53,"interpolation":0,"output":54},{"input":55,"interpolation":0,"output":56}],"name":"All Animations"}]}