<svg xmlns="http://www.w3.org/2000/svg" viewBox="0 0 256 256"><defs><style>.cls-1,.cls-2,.cls-4{fill:none;stroke:#fff;stroke-miterlimit:10;}.cls-1{stroke-linecap:square;}.cls-1,.cls-2{stroke-width:4px;}.cls-2,.cls-4{stroke-linecap:round;}.cls-3{fill:#fff;opacity:0.3;}.cls-4{stroke-width:6.89px;}</style></defs><title>AC36_Web_Viewer_Buttons</title><g id="BoatLabels"><g id="BoatLabels-2" data-name="BoatLabels"><g id="label"><line id="DistanceLine" class="cls-1" x1="145.02" y1="121" x2="145.02" y2="93.5"/><rect class="cls-2" x="145.45" y="93.5" width="40" height="18"/><rect class="cls-3" x="145.45" y="93.5" width="40" height="18"/></g><g id="label-2" data-name="label"><line id="DistanceLine-2" data-name="DistanceLine" class="cls-1" x1="85.02" y1="79" x2="85.02" y2="51.5"/><rect class="cls-2" x="85.45" y="51.5" width="40" height="18"/><rect class="cls-3" x="85.45" y="51.5" width="40" height="18"/></g><path class="cls-4" d="M155.08,169.45c-.23-2.81-.44-8.36-1-10.34-1.55-8.45-6.44-23.51-10-27.07-3.16,3.16-8.45,18.62-10,27.07-.6,2-.81,7.53-1,10.34-.43,5.37.49,29.64,1.38,32.59H153.7C154.58,199.09,155.51,174.82,155.08,169.45Z"/><path class="cls-4" d="M96.08,128.45c-.23-2.81-.44-8.36-1-10.34C93.49,109.66,88.6,94.6,85,91c-3.16,3.16-8.45,18.62-10,27.07-.6,2-.81,7.53-1,10.34-.43,5.37.49,29.64,1.38,32.59H94.7C95.58,158.09,96.51,133.82,96.08,128.45Z"/></g></g></svg>