{"asset":{"version":"2.0","generator":"babylon.js glTF exporter for Maya 2018 v20200225.2"},"scene":0,"scenes":[{"nodes":[0,14],"extensions":{}}],"nodes":[{"children":[1,5,9,11,12,13],"rotation":[-0.5,0.5,0.5,0.5],"name":"AC75_LR_babylon_New"},{"children":[2,3,4],"translation":[1.5,2.05,0.52],"name":"B_LR_PrtFo_piv"},{"mesh":0,"name":"B_LR_PrtFoilHinge","extras":{"currentUVSet":"map1","UDP3DSMAX":"MapChannel:1 = map1&cr;&lf;","MaxHandle":930}},{"mesh":1,"translation":[-1.5,-2.05,-0.52],"name":"B_LR_PrtFoil"},{"mesh":2,"name":"B_LR_PrtFlaps","extras":{"currentUVSet":"map1","UDP3DSMAX":"MapChannel:1 = map1&cr;&lf;","MaxHandle":1725}},{"children":[6,7,8],"translation":[1.5,-2.05,0.52],"name":"B_LR_StbFo_piv"},{"mesh":3,"rotation":[0.0,0.0,1.0,6.123234E-17],"name":"B_LR_StbFoilHinge","extras":{"currentUVSet":"map1","UDP3DSMAX":"MapChannel:1 = map1&cr;&lf;","MaxHandle":930}},{"mesh":4,"translation":[1.5,2.05,-0.52],"rotation":[0.0,0.0,1.0,6.123234E-17],"name":"B_LR_StbFoil"},{"mesh":5,"translation":[7.067047E-18,0.0,0.0],"rotation":[0.0,0.0,1.0,6.123234E-17],"name":"B_LR_StbFlaps","extras":{"currentUVSet":"map1","UDP3DSMAX":"MapChannel:1 = map1&cr;&lf;","MaxHandle":1725}},{"children":[10],"translation":[-8.969931,0.0,0.0],"name":"B_LR_Rudder_piv"},{"mesh":6,"translation":[-0.6294933,0.0,-0.0372593626],"rotation":[0.0,-0.0261943955,0.0,0.999656856],"name":"B_LR_rudder","extras":{"currentUVSet":"map1","UDP3DSMAX":"MapChannel:1 = map1&cr;&lf;","MaxHandle":933}},{"mesh":7,"rotation":[0.5,-0.5,-0.5,0.5],"name":"B_LR_hull_MERGED"},{"mesh":8,"name":"B_LR_jibBlend_00","extras":{"MaxHandle":1650}},{"mesh":9,"name":"B_LR_mainsail_curl_sweep_00"},{"name":"Default light"}],"meshes":[{"primitives":[{"attributes":{"POSITION":1,"NORMAL":2,"TEXCOORD_0":3},"indices":0,"material":0}],"name":"B_LR_PrtFoilHinge"},{"primitives":[{"attributes":{"POSITION":5,"NORMAL":6,"TEXCOORD_0":7},"indices":4,"material":0}],"name":"B_LR_PrtFoil"},{"primitives":[{"attributes":{"POSITION":9,"NORMAL":10,"TEXCOORD_0":11},"indices":8,"material":0}],"name":"B_LR_PrtFlaps"},{"primitives":[{"attributes":{"POSITION":13,"NORMAL":14,"TEXCOORD_0":15},"indices":12,"material":0}],"name":"B_LR_StbFoilHinge"},{"primitives":[{"attributes":{"POSITION":17,"NORMAL":18,"TEXCOORD_0":19},"indices":16,"material":0}],"name":"B_LR_StbFoil"},{"primitives":[{"attributes":{"POSITION":21,"NORMAL":22,"TEXCOORD_0":23},"indices":20,"material":0}],"name":"B_LR_StbFlaps"},{"primitives":[{"attributes":{"POSITION":25,"NORMAL":26,"TEXCOORD_0":27},"indices":24,"material":0}],"name":"B_LR_rudder"},{"primitives":[{"attributes":{"POSITION":29,"NORMAL":30,"COLOR_0":31,"TEXCOORD_0":32},"indices":28,"material":0}],"name":"B_LR_hull_MERGED"},{"primitives":[{"attributes":{"POSITION":34,"NORMAL":35,"TEXCOORD_0":36},"indices":33,"material":1,"targets":[{"POSITION":37},{"POSITION":38},{"POSITION":39},{"POSITION":40},{"POSITION":41},{"POSITION":42},{"POSITION":43},{"POSITION":44},{"POSITION":45},{"POSITION":46}]}],"weights":[0.0,0.0,0.0,0.0,0.0,0.0,0.0,0.0,0.0,0.0],"name":"B_LR_jibBlend_00"},{"primitives":[{"attributes":{"POSITION":48,"NORMAL":49,"TEXCOORD_0":50},"indices":47,"material":1,"targets":[{"POSITION":51},{"POSITION":52},{"POSITION":53},{"POSITION":54},{"POSITION":55},{"POSITION":56},{"POSITION":57},{"POSITION":58},{"POSITION":59},{"POSITION":60}]}],"weights":[0.0,0.0,0.0,0.0,0.0,0.0,0.0,0.0,0.0,0.0],"name":"B_LR_mainsail_curl_sweep_00"}],"accessors":[{"bufferView":0,"componentType":5123,"count":228,"type":"SCALAR","name":"accessorIndices"},{"bufferView":1,"componentType":5126,"count":82,"max":[0.2696489,0.261878937,0.261882752],"min":[-0.1071112,-0.261891335,-0.261887729],"type":"VEC3","name":"accessorPositions"},{"bufferView":1,"byteOffset":984,"componentType":5126,"count":82,"type":"VEC3","name":"accessorNormals"},{"bufferView":2,"componentType":5126,"count":82,"type":"VEC2","name":"accessorUVs"},{"bufferView":0,"byteOffset":456,"componentType":5123,"count":3654,"type":"SCALAR","name":"accessorIndices"},{"bufferView":1,"byteOffset":1968,"componentType":5126,"count":719,"max":[2.04268575,7.3131566,0.486567646],"min":[1.08659673,2.13117361,-2.7729044],"type":"VEC3","name":"accessorPositions"},{"bufferView":1,"byteOffset":10596,"componentType":5126,"count":719,"type":"VEC3","name":"accessorNormals"},{"bufferView":2,"byteOffset":656,"componentType":5126,"count":719,"type":"VEC2","name":"accessorUVs"},{"bufferView":0,"byteOffset":7764,"componentType":5123,"count":48,"type":"SCALAR","name":"accessorIndices"},{"bufferView":1,"byteOffset":19224,"componentType":5126,"count":24,"max":[0.145338774,5.129912,-2.068337],"min":[-0.114587277,1.66054392,-3.26690125],"type":"VEC3","name":"accessorPositions"},{"bufferView":1,"byteOffset":19512,"componentType":5126,"count":24,"type":"VEC3","name":"accessorNormals"},{"bufferView":2,"byteOffset":6408,"componentType":5126,"count":24,"type":"VEC2","name":"accessorUVs"},{"bufferView":0,"byteOffset":7860,"componentType":5123,"count":228,"type":"SCALAR","name":"accessorIndices"},{"bufferView":1,"byteOffset":19800,"componentType":5126,"count":82,"max":[0.1071112,0.261878937,0.261882752],"min":[-0.2696489,-0.261891335,-0.261887729],"type":"VEC3","name":"accessorPositions"},{"bufferView":1,"byteOffset":20784,"componentType":5126,"count":82,"type":"VEC3","name":"accessorNormals"},{"bufferView":2,"byteOffset":6600,"componentType":5126,"count":82,"type":"VEC2","name":"accessorUVs"},{"bufferView":0,"byteOffset":8316,"componentType":5123,"count":3654,"type":"SCALAR","name":"accessorIndices"},{"bufferView":1,"byteOffset":21768,"componentType":5126,"count":719,"max":[1.91340327,7.3131566,0.486567646],"min":[0.957314134,2.13117361,-2.7729044],"type":"VEC3","name":"accessorPositions"},{"bufferView":1,"byteOffset":30396,"componentType":5126,"count":719,"type":"VEC3","name":"accessorNormals"},{"bufferView":2,"byteOffset":7256,"componentType":5126,"count":719,"type":"VEC2","name":"accessorUVs"},{"bufferView":0,"byteOffset":15624,"componentType":5123,"count":48,"type":"SCALAR","name":"accessorIndices"},{"bufferView":1,"byteOffset":39024,"componentType":5126,"count":24,"max":[0.114587277,5.129912,-2.0683372],"min":[-0.145338759,1.66054392,-3.26690125],"type":"VEC3","name":"accessorPositions"},{"bufferView":1,"byteOffset":39312,"componentType":5126,"count":24,"type":"VEC3","name":"accessorNormals"},{"bufferView":2,"byteOffset":13008,"componentType":5126,"count":24,"type":"VEC2","name":"accessorUVs"},{"bufferView":0,"byteOffset":15720,"componentType":5123,"count":3006,"type":"SCALAR","name":"accessorIndices"},{"bufferView":1,"byteOffset":39600,"componentType":5126,"count":631,"max":[0.759530544,1.30007493,0.0256940946],"min":[0.24761501,-1.30007493,-3.05606127],"type":"VEC3","name":"accessorPositions"},{"bufferView":1,"byteOffset":47172,"componentType":5126,"count":631,"type":"VEC3","name":"accessorNormals"},{"bufferView":2,"byteOffset":13200,"componentType":5126,"count":631,"type":"VEC2","name":"accessorUVs"},{"bufferView":0,"byteOffset":21732,"componentType":5123,"count":60480,"type":"SCALAR","name":"accessorIndices"},{"bufferView":1,"byteOffset":54744,"componentType":5126,"count":17091,"max":[2.43955946,27.6071873,10.0510693],"min":[-2.43955946,-0.5683345,-13.3501205],"type":"VEC3","name":"accessorPositions"},{"bufferView":1,"byteOffset":259836,"componentType":5126,"count":17091,"type":"VEC3","name":"accessorNormals"},{"bufferView":3,"componentType":5126,"count":17091,"type":"VEC4","name":"accessorColors"},{"bufferView":2,"byteOffset":18248,"componentType":5126,"count":17091,"type":"VEC2","name":"accessorUVs"},{"bufferView":0,"byteOffset":142692,"componentType":5123,"count":2010,"type":"SCALAR","name":"accessorIndices"},{"bufferView":1,"byteOffset":464928,"componentType":5126,"count":404,"max":[7.91021967,1.48398316,23.7854443],"min":[-1.26576054,-0.0001208496,1.32566857],"type":"VEC3","name":"accessorPositions"},{"bufferView":1,"byteOffset":469776,"componentType":5126,"count":404,"type":"VEC3","name":"accessorNormals"},{"bufferView":2,"byteOffset":154976,"componentType":5126,"count":404,"type":"VEC2","name":"accessorUVs"},{"bufferView":1,"byteOffset":474624,"componentType":5126,"count":404,"max":[0.7184204,0.118077993,0.285905123],"min":[0.0122144222,-0.5351703,0.004880905],"type":"VEC3","name":"accessorTargetPositions"},{"bufferView":1,"byteOffset":479472,"componentType":5126,"count":404,"max":[2.385288,0.298126936,0.9539795],"min":[0.0103981495,-1.288733,0.004172325],"type":"VEC3","name":"accessorTargetPositions"},{"bufferView":1,"byteOffset":484320,"componentType":5126,"count":404,"max":[4.260341,0.390241742,1.71130252],"min":[0.011660099,-1.5044415,0.00468444824],"type":"VEC3","name":"accessorTargetPositions"},{"bufferView":1,"byteOffset":489168,"componentType":5126,"count":404,"max":[5.787553,-0.0139782708,2.3306725],"min":[0.0107104778,-1.50308108,0.004272461],"type":"VEC3","name":"accessorTargetPositions"},{"bufferView":1,"byteOffset":494016,"componentType":5126,"count":404,"max":[6.296683,0.0232562255,2.49143672],"min":[0.007965088,-1.47181642,0.003168106],"type":"VEC3","name":"accessorTargetPositions"},{"bufferView":1,"byteOffset":498864,"componentType":5126,"count":404,"max":[5.787554,0.0204089358,2.3306725],"min":[0.0107104778,-1.46844721,0.004272461],"type":"VEC3","name":"accessorTargetPositions"},{"bufferView":1,"byteOffset":503712,"componentType":5126,"count":404,"max":[4.260341,0.01868164,1.71130252],"min":[0.0116589069,-2.04214,0.004682541],"type":"VEC3","name":"accessorTargetPositions"},{"bufferView":1,"byteOffset":508560,"componentType":5126,"count":404,"max":[2.385288,0.01876953,0.9539795],"min":[0.0103976727,-2.66176,0.004172325],"type":"VEC3","name":"accessorTargetPositions"},{"bufferView":1,"byteOffset":513408,"componentType":5126,"count":404,"max":[0.718421,0.0182171632,0.285905123],"min":[0.0122144222,-3.02810359,0.004878998],"type":"VEC3","name":"accessorTargetPositions"},{"bufferView":1,"byteOffset":518256,"componentType":5126,"count":404,"max":[9.536743E-07,0.000242309558,3.81469727E-06],"min":[-9.536743E-07,-2.96796632,-1.90734863E-06],"type":"VEC3","name":"accessorTargetPositions"},{"bufferView":0,"byteOffset":146712,"componentType":5123,"count":10074,"type":"SCALAR","name":"accessorIndices"},{"bufferView":1,"byteOffset":523104,"componentType":5126,"count":2279,"max":[0.167362109,2.30121827,27.9366016],"min":[-7.705808,-2.30121827,0.8583546],"type":"VEC3","name":"accessorPositions"},{"bufferView":1,"byteOffset":550452,"componentType":5126,"count":2279,"type":"VEC3","name":"accessorNormals"},{"bufferView":2,"byteOffset":158208,"componentType":5126,"count":2279,"type":"VEC2","name":"accessorUVs"},{"bufferView":1,"byteOffset":577800,"componentType":5126,"count":2279,"max":[0.233783573,0.0298551619,0.000113487244],"min":[-0.00258779526,-0.0298501924,-0.0005130768],"type":"VEC3","name":"accessorTargetPositions"},{"bufferView":1,"byteOffset":605148,"componentType":5126,"count":2279,"max":[0.233880773,0.02998083,0.00144433975],"min":[-0.03654957,-0.09417021,-0.00682449341],"type":"VEC3","name":"accessorTargetPositions"},{"bufferView":1,"byteOffset":632496,"componentType":5126,"count":2279,"max":[0.23420766,0.0304145217,0.00527763367],"min":[-0.151682377,-0.4003657,-0.0266017914],"type":"VEC3","name":"accessorTargetPositions"},{"bufferView":1,"byteOffset":659844,"componentType":5126,"count":2279,"max":[0.234900281,0.03271918,0.0104036331],"min":[-0.323642731,-1.05984938,-0.05659294],"type":"VEC3","name":"accessorTargetPositions"},{"bufferView":1,"byteOffset":687192,"componentType":5126,"count":2279,"max":[0.238137424,0.06840334,0.013402462],"min":[-0.427248955,-2.12628579,-0.07279396],"type":"VEC3","name":"accessorTargetPositions"},{"bufferView":1,"byteOffset":714540,"componentType":5126,"count":2279,"max":[0.241560683,0.104087517,0.0126991272],"min":[-0.339744568,-3.19055033,-0.05627823],"type":"VEC3","name":"accessorTargetPositions"},{"bufferView":1,"byteOffset":741888,"componentType":5126,"count":2279,"max":[0.244306952,0.124891981,0.0116205215],"min":[-0.197065353,-3.843345,-0.0301818848],"type":"VEC3","name":"accessorTargetPositions"},{"bufferView":1,"byteOffset":769236,"componentType":5126,"count":2279,"max":[0.245465875,0.1341187,0.0132119656],"min":[-0.124043226,-4.1455636,-0.01843071],"type":"VEC3","name":"accessorTargetPositions"},{"bufferView":1,"byteOffset":796584,"componentType":5126,"count":2279,"max":[0.245773166,0.13661541,0.0137637854],"min":[-0.107192039,-4.231147,-0.01508522],"type":"VEC3","name":"accessorTargetPositions"},{"bufferView":1,"byteOffset":823932,"componentType":5126,"count":2279,"max":[0.2457966,0.136806771,0.0138070583],"min":[-0.105865955,-4.23792553,-0.0148086548],"type":"VEC3","name":"accessorTargetPositions"},{"bufferView":4,"componentType":5126,"count":2,"max":[80.0],"min":[0.0],"type":"SCALAR","name":"accessorAnimationInput"},{"bufferView":4,"byteOffset":8,"componentType":5126,"count":20,"type":"SCALAR","name":"accessorAnimationWeights"},{"bufferView":4,"byteOffset":88,"componentType":5126,"count":2,"max":[80.0],"min":[0.0],"type":"SCALAR","name":"accessorAnimationInput"},{"bufferView":4,"byteOffset":96,"componentType":5126,"count":20,"type":"SCALAR","name":"accessorAnimationWeights"}],"bufferViews":[{"buffer":0,"byteLength":166860,"name":"bufferViewScalar"},{"buffer":0,"byteOffset":166860,"byteLength":851280,"byteStride":12,"name":"bufferViewFloatVec3"},{"buffer":0,"byteOffset":1018140,"byteLength":176440,"byteStride":8,"name":"bufferViewFloatVec2"},{"buffer":0,"byteOffset":1194580,"byteLength":273456,"byteStride":16,"name":"bufferViewFloatVec4"},{"buffer":0,"byteOffset":1468036,"byteLength":176,"name":"bufferViewAnimationFloatScalar"}],"buffers":[{"uri":"AC75_LR.bin","byteLength":1468212}],"materials":[{"pbrMetallicRoughness":{"baseColorTexture":{"index":1},"metallicRoughnessTexture":{"index":2}},"normalTexture":{"index":0},"name":"AC75_LR_SR_PBS"},{"pbrMetallicRoughness":{"baseColorTexture":{"index":1},"metallicRoughnessTexture":{"index":2}},"normalTexture":{"index":0},"alphaMode":"BLEND","name":"AC75_LR_sails_SR_PBS1","extras":{"use_opacity_map":{"resultType":5,"stringResult":""},"opacity":{"resultType":5,"stringResult":""}}}],"textures":[{"sampler":0,"source":0,"name":"AC75_2020_LR_boat2_N.png"},{"sampler":0,"source":1,"name":"AC75_2020_LR_boat2_ws.png"},{"sampler":0,"source":2,"name":"AC75_2020_LR_boat2_ORM.png"}],"images":[{"uri":"AC75_2020_LR_boat2_N.png"},{"uri":"AC75_2020_LR_boat2_ws.png"},{"uri":"AC75_2020_LR_boat2_ORM.png"}],"samplers":[{"magFilter":9729,"minFilter":9987}],"animations":[{"channels":[{"sampler":0,"target":{"node":12,"path":"weights"}},{"sampler":1,"target":{"node":13,"path":"weights"}}],"samplers":[{"input":61,"interpolation":0,"output":62},{"input":63,"interpolation":0,"output":64}],"name":"All Animations"}]}