<svg xmlns="http://www.w3.org/2000/svg" viewBox="0 0 256 256"><defs><style>.cls-1{fill:none;stroke:#fff;stroke-miterlimit:10;stroke-width:5px;}</style></defs><g id="Zoom"><path class="cls-1" d="M146.14,141.37c5.7-2.59,9.57-7.6,9.57-13.36s-3.88-10.8-9.6-13.38"/><path class="cls-1" d="M167.5,173.47c16.27-10.6,26.75-27,26.75-45.45s-10.51-34.89-26.81-45.49"/><path class="cls-1" d="M156.66,157.42c11.28-6.45,18.69-17.21,18.69-29.41s-7.43-23-18.73-29.43"/><rect class="cls-1" x="61.75" y="109.28" width="26.74" height="37.44" rx="4.34"/><path class="cls-1" d="M120.13,85.41c2.25-1.58,4.09-.63,4.09,2.12v80.94c0,2.75-1.84,3.7-4.09,2.12L92.59,151.26a10.85,10.85,0,0,1-4.1-7.88V112.62a10.85,10.85,0,0,1,4.1-7.88Z"/></g></svg>