{"asset":{"version":"2.0","generator":"babylon.js glTF exporter for Maya 2018 v20200225.2"},"scene":0,"scenes":[{"nodes":[0,2],"extensions":{}}],"nodes":[{"children":[1],"mesh":0,"rotation":[-0.707106769,0.0,0.0,0.707106769],"name":"prada_Mark_2500"},{"mesh":1,"translation":[0.0,0.0,2.50133181],"name":"windbot:windBot"},{"name":"Default light"}],"meshes":[{"primitives":[{"attributes":{"POSITION":1,"TANGENT":2,"NORMAL":3,"TEXCOORD_0":4},"indices":0,"material":0}],"name":"prada_Mark_2500"},{"primitives":[{"attributes":{"POSITION":6,"TANGENT":7,"NORMAL":8,"TEXCOORD_0":9},"indices":5,"material":1}],"name":"windbot:windBot"}],"accessors":[{"bufferView":0,"componentType":5123,"count":4041,"type":"SCALAR","name":"accessorIndices"},{"bufferView":1,"componentType":5126,"count":812,"max":[1.57837319,1.40175378,2.50133181],"min":[-0.9763319,-1.40175378,-0.00124961685],"type":"VEC3","name":"accessorPositions"},{"bufferView":2,"componentType":5126,"count":812,"type":"VEC4","name":"accessorTangents"},{"bufferView":1,"byteOffset":9744,"componentType":5126,"count":812,"type":"VEC3","name":"accessorNormals"},{"bufferView":3,"componentType":5126,"count":812,"type":"VEC2","name":"accessorUVs"},{"bufferView":0,"byteOffset":8084,"componentType":5123,"count":4422,"type":"SCALAR","name":"accessorIndices"},{"bufferView":1,"byteOffset":19488,"componentType":5126,"count":1299,"max":[0.0924159139,0.07465215,1.50379264],"min":[-0.06768664,-0.07465215,-0.9577615],"type":"VEC3","name":"accessorPositions"},{"bufferView":2,"byteOffset":12992,"componentType":5126,"count":1299,"type":"VEC4","name":"accessorTangents"},{"bufferView":1,"byteOffset":35076,"componentType":5126,"count":1299,"type":"VEC3","name":"accessorNormals"},{"bufferView":3,"byteOffset":6496,"componentType":5126,"count":1299,"type":"VEC2","name":"accessorUVs"}],"bufferViews":[{"buffer":0,"byteLength":16928,"name":"bufferViewScalar"},{"buffer":0,"byteOffset":16928,"byteLength":50664,"byteStride":12,"name":"bufferViewFloatVec3"},{"buffer":0,"byteOffset":67592,"byteLength":33776,"byteStride":16,"name":"bufferViewFloatVec4"},{"buffer":0,"byteOffset":101368,"byteLength":16888,"byteStride":8,"name":"bufferViewFloatVec2"}],"buffers":[{"uri":"prada_mark_windBot.bin","byteLength":118256}],"materials":[{"pbrMetallicRoughness":{"baseColorTexture":{"index":0},"metallicFactor":0.0,"roughnessFactor":0.4},"name":"mark_StingrayPBS"},{"pbrMetallicRoughness":{"baseColorTexture":{"index":1},"metallicRoughnessTexture":{"index":2}},"name":"windbot:WindBot_SR_PBS"}],"textures":[{"sampler":0,"source":0,"name":"prada_mark.jpg"},{"sampler":0,"source":1,"name":"windbot.png"},{"sampler":0,"source":2,"name":"windbot_MR.jpg"}],"images":[{"uri":"prada_mark.jpg"},{"uri":"windbot.png"},{"uri":"windbot_MR.jpg"}],"samplers":[{"magFilter":9729,"minFilter":9987}]}