{"asset":{"version":"2.0","generator":"babylon.js glTF exporter for Maya 2018 v20200225.2"},"scene":0,"scenes":[{"nodes":[0,1],"extensions":{}}],"nodes":[{"mesh":0,"rotation":[-0.707106769,0.0,0.0,0.707106769],"name":"prada_Mark_2500"},{"name":"Default light"}],"meshes":[{"primitives":[{"attributes":{"POSITION":1,"TANGENT":2,"NORMAL":3,"TEXCOORD_0":4},"indices":0,"material":0}],"name":"prada_Mark_2500"}],"accessors":[{"bufferView":0,"componentType":5123,"count":4041,"type":"SCALAR","name":"accessorIndices"},{"bufferView":1,"componentType":5126,"count":812,"max":[1.57837319,1.40175378,2.50133181],"min":[-0.9763319,-1.40175378,-0.00124961685],"type":"VEC3","name":"accessorPositions"},{"bufferView":2,"componentType":5126,"count":812,"type":"VEC4","name":"accessorTangents"},{"bufferView":1,"byteOffset":9744,"componentType":5126,"count":812,"type":"VEC3","name":"accessorNormals"},{"bufferView":3,"componentType":5126,"count":812,"type":"VEC2","name":"accessorUVs"}],"bufferViews":[{"buffer":0,"byteLength":8084,"name":"bufferViewScalar"},{"buffer":0,"byteOffset":8084,"byteLength":19488,"byteStride":12,"name":"bufferViewFloatVec3"},{"buffer":0,"byteOffset":27572,"byteLength":12992,"byteStride":16,"name":"bufferViewFloatVec4"},{"buffer":0,"byteOffset":40564,"byteLength":6496,"byteStride":8,"name":"bufferViewFloatVec2"}],"buffers":[{"uri":"prada_mark.bin","byteLength":47060}],"materials":[{"pbrMetallicRoughness":{"baseColorTexture":{"index":0},"metallicFactor":0.0,"roughnessFactor":0.4},"name":"mark_StingrayPBS"}],"textures":[{"sampler":0,"source":0,"name":"prada_mark.jpg"}],"images":[{"uri":"prada_mark.jpg"}],"samplers":[{"magFilter":9729,"minFilter":9987}]}