{"asset":{"version":"2.0","generator":"babylon.js glTF exporter for Maya 2018 v20200225.2"},"scene":0,"scenes":[{"nodes":[0,14],"extensions":{}}],"nodes":[{"children":[1,5,9,11,12,13],"rotation":[-0.5,0.5,0.5,0.5],"name":"AC75_ETNZ_Babylon_New"},{"children":[2,3,4],"translation":[1.5,2.05000019,0.52],"name":"B_ETNZ_PrtFo_piv"},{"mesh":0,"translation":[0.0,-1.52587887E-07,0.0],"name":"B_ETNZ_PrtFoilHinge","extras":{"currentUVSet":"map1","UDP3DSMAX":"MapChannel:1 = map1&cr;&lf;","MaxHandle":669}},{"mesh":1,"translation":[-0.21961914,-1.52587887E-07,3.81469718E-08],"rotation":[0.573869467,0.413126916,0.573869467,0.413126856],"scale":[100.0,100.0,100.0],"name":"B_ETNZ_PrtFoildowel","extras":{"MaxHandle":1466}},{"mesh":2,"translation":[-10.9992189,-2.05000019,-0.52],"name":"B_ETNZ_PrtFoil2","extras":{"UDP3DSMAX":"MapChannel:1 = map1&cr;&lf;","MaxHandle":1879}},{"children":[6,7,8],"translation":[1.5,-2.05,0.52],"name":"B_ETNZ_StbFo_piv"},{"mesh":3,"translation":[0.0,-1.52587887E-07,0.0],"name":"B_ETNZ_StbFoilHinge","extras":{"currentUVSet":"map1","UDP3DSMAX":"MapChannel:1 = map1&cr;&lf;","MaxHandle":669}},{"mesh":4,"translation":[-0.21961914,-1.52587887E-07,3.81469718E-08],"rotation":[0.573869467,0.413126916,0.573869467,0.413126856],"name":"B_ETNZ_StbFoildowel","extras":{"MaxHandle":1466}},{"mesh":5,"translation":[-10.9992189,-2.05000019,-0.52],"name":"B_ETNZ_StbFoil","extras":{"UDP3DSMAX":"MapChannel:1 = map1&cr;&lf;","MaxHandle":1879}},{"children":[10],"translation":[-8.969931,0.0,0.0],"name":"B_ETNZ_Rudder_piv"},{"mesh":6,"translation":[-0.5300696,0.0,0.0],"name":"B_ETNZ_rudder","extras":{"currentUVSet":"map1","UDP3DSMAX":"MapChannel:1 = map1&cr;&lf;","MaxHandle":675}},{"mesh":7,"name":"B_ETNZ_jibBlend_00","extras":{"MaxHandle":1650}},{"mesh":8,"rotation":[0.5,-0.5,-0.5,0.5],"name":"B_ETNZ_newHull_Fudged_MERGED"},{"mesh":9,"name":"B_ETNZ_mainsail_curl_sweep_Tweaked_21"},{"name":"Default light"}],"meshes":[{"primitives":[{"attributes":{"POSITION":1,"NORMAL":2,"TEXCOORD_0":3},"indices":0,"material":0}],"name":"B_ETNZ_PrtFoilHinge"},{"primitives":[{"attributes":{"POSITION":5,"NORMAL":6,"TEXCOORD_0":7},"indices":4,"material":0}],"name":"B_ETNZ_PrtFoildowel"},{"primitives":[{"attributes":{"POSITION":9,"NORMAL":10,"TEXCOORD_0":11},"indices":8,"material":0}],"name":"B_ETNZ_PrtFoil2"},{"primitives":[{"attributes":{"POSITION":13,"NORMAL":14,"TEXCOORD_0":15},"indices":12,"material":0}],"name":"B_ETNZ_StbFoilHinge"},{"primitives":[{"attributes":{"POSITION":17,"NORMAL":18,"TEXCOORD_0":19},"indices":16,"material":0}],"name":"B_ETNZ_StbFoildowel"},{"primitives":[{"attributes":{"POSITION":21,"NORMAL":22,"TEXCOORD_0":23},"indices":20,"material":0}],"name":"B_ETNZ_StbFoil"},{"primitives":[{"attributes":{"POSITION":25,"NORMAL":26,"TEXCOORD_0":27},"indices":24,"material":0}],"name":"B_ETNZ_rudder"},{"primitives":[{"attributes":{"POSITION":29,"NORMAL":30,"TEXCOORD_0":31},"indices":28,"material":1,"targets":[{"POSITION":32},{"POSITION":33},{"POSITION":34},{"POSITION":35},{"POSITION":36},{"POSITION":37},{"POSITION":38},{"POSITION":39},{"POSITION":40},{"POSITION":41}]}],"weights":[0.0,0.0,0.0,0.0,0.0,0.0,0.0,0.0,0.0,0.0],"name":"B_ETNZ_jibBlend_00"},{"primitives":[{"attributes":{"POSITION":43,"NORMAL":44,"TEXCOORD_0":45},"indices":42,"material":0}],"name":"B_ETNZ_newHull_Fudged_MERGED"},{"primitives":[{"attributes":{"POSITION":47,"NORMAL":48,"TEXCOORD_0":49},"indices":46,"material":1,"targets":[{"POSITION":50},{"POSITION":51},{"POSITION":52},{"POSITION":53},{"POSITION":54},{"POSITION":55},{"POSITION":56},{"POSITION":57},{"POSITION":58},{"POSITION":59}]}],"weights":[0.0,0.0,0.0,0.0,0.0,0.0,0.0,0.0,0.0,0.0],"name":"B_ETNZ_mainsail_curl_sweep_Tweaked_21"}],"accessors":[{"bufferView":0,"componentType":5123,"count":1200,"type":"SCALAR","name":"accessorIndices"},{"bufferView":1,"componentType":5126,"count":250,"max":[0.7243203,0.175133049,0.175132588],"min":[-0.724321067,-0.175131828,-0.175132677],"type":"VEC3","name":"accessorPositions"},{"bufferView":1,"byteOffset":3000,"componentType":5126,"count":250,"type":"VEC3","name":"accessorNormals"},{"bufferView":2,"componentType":5126,"count":250,"type":"VEC2","name":"accessorUVs"},{"bufferView":0,"byteOffset":2400,"componentType":5123,"count":240,"type":"SCALAR","name":"accessorIndices"},{"bufferView":1,"byteOffset":6000,"componentType":5126,"count":124,"max":[0.00205000164,0.00205,0.00439999951],"min":[-0.00205000048,-0.00205,0.0],"type":"VEC3","name":"accessorPositions"},{"bufferView":1,"byteOffset":7488,"componentType":5126,"count":124,"type":"VEC3","name":"accessorNormals"},{"bufferView":2,"byteOffset":2000,"componentType":5126,"count":124,"type":"VEC2","name":"accessorUVs"},{"bufferView":0,"byteOffset":2880,"componentType":5123,"count":4518,"type":"SCALAR","name":"accessorIndices"},{"bufferView":1,"byteOffset":8976,"componentType":5126,"count":869,"max":[11.423481,7.089247,0.486552536],"min":[10.5765381,2.13120174,-2.5595274],"type":"VEC3","name":"accessorPositions"},{"bufferView":1,"byteOffset":19404,"componentType":5126,"count":869,"type":"VEC3","name":"accessorNormals"},{"bufferView":2,"byteOffset":2992,"componentType":5126,"count":869,"type":"VEC2","name":"accessorUVs"},{"bufferView":0,"byteOffset":11916,"componentType":5123,"count":1200,"type":"SCALAR","name":"accessorIndices"},{"bufferView":1,"byteOffset":29832,"componentType":5126,"count":250,"max":[0.7243203,0.175132141,0.175132588],"min":[-0.724321067,-0.175132751,-0.175132677],"type":"VEC3","name":"accessorPositions"},{"bufferView":1,"byteOffset":32832,"componentType":5126,"count":250,"type":"VEC3","name":"accessorNormals"},{"bufferView":2,"byteOffset":9944,"componentType":5126,"count":250,"type":"VEC2","name":"accessorUVs"},{"bufferView":0,"byteOffset":14316,"componentType":5123,"count":240,"type":"SCALAR","name":"accessorIndices"},{"bufferView":1,"byteOffset":35832,"componentType":5126,"count":124,"max":[0.2049689,0.204968721,0.439999938],"min":[-0.204968557,-0.204968825,-2.36073934E-08],"type":"VEC3","name":"accessorPositions"},{"bufferView":1,"byteOffset":37320,"componentType":5126,"count":124,"type":"VEC3","name":"accessorNormals"},{"bufferView":2,"byteOffset":11944,"componentType":5126,"count":124,"type":"VEC2","name":"accessorUVs"},{"bufferView":0,"byteOffset":14796,"componentType":5123,"count":4518,"type":"SCALAR","name":"accessorIndices"},{"bufferView":1,"byteOffset":38808,"componentType":5126,"count":869,"max":[11.423481,1.96879852,0.486552536],"min":[10.5765381,-2.98924732,-2.5595274],"type":"VEC3","name":"accessorPositions"},{"bufferView":1,"byteOffset":49236,"componentType":5126,"count":869,"type":"VEC3","name":"accessorNormals"},{"bufferView":2,"byteOffset":12936,"componentType":5126,"count":869,"type":"VEC2","name":"accessorUVs"},{"bufferView":0,"byteOffset":23832,"componentType":5123,"count":3006,"type":"SCALAR","name":"accessorIndices"},{"bufferView":1,"byteOffset":59664,"componentType":5126,"count":631,"max":[0.7597804,1.30007493,-0.0198225714],"min":[0.286479861,-1.30007493,-3.05645],"type":"VEC3","name":"accessorPositions"},{"bufferView":1,"byteOffset":67236,"componentType":5126,"count":631,"type":"VEC3","name":"accessorNormals"},{"bufferView":2,"byteOffset":19888,"componentType":5126,"count":631,"type":"VEC2","name":"accessorUVs"},{"bufferView":0,"byteOffset":29844,"componentType":5123,"count":2010,"type":"SCALAR","name":"accessorIndices"},{"bufferView":1,"byteOffset":74808,"componentType":5126,"count":404,"max":[7.91021967,1.48398316,23.7854443],"min":[-1.26576054,-0.0001208496,1.21687424],"type":"VEC3","name":"accessorPositions"},{"bufferView":1,"byteOffset":79656,"componentType":5126,"count":404,"type":"VEC3","name":"accessorNormals"},{"bufferView":2,"byteOffset":24936,"componentType":5126,"count":404,"type":"VEC2","name":"accessorUVs"},{"bufferView":1,"byteOffset":84504,"componentType":5126,"count":404,"max":[0.7184204,0.118077993,0.799474],"min":[0.0122144222,-0.5351703,0.004880905],"type":"VEC3","name":"accessorTargetPositions"},{"bufferView":1,"byteOffset":89352,"componentType":5126,"count":404,"max":[2.385288,0.298126936,1.42043614],"min":[0.0103981495,-1.288733,0.004172325],"type":"VEC3","name":"accessorTargetPositions"},{"bufferView":1,"byteOffset":94200,"componentType":5126,"count":404,"max":[4.21894,0.390241742,2.19524527],"min":[0.011660099,-1.5044415,0.00468444824],"type":"VEC3","name":"accessorTargetPositions"},{"bufferView":1,"byteOffset":99048,"componentType":5126,"count":404,"max":[5.73603439,-0.0139782708,2.83092928],"min":[0.0107104778,-1.50308108,0.004272461],"type":"VEC3","name":"accessorTargetPositions"},{"bufferView":1,"byteOffset":103896,"componentType":5126,"count":404,"max":[6.24516439,0.0232562255,3.04064322],"min":[0.007965088,-1.47181642,0.003168106],"type":"VEC3","name":"accessorTargetPositions"},{"bufferView":1,"byteOffset":108744,"componentType":5126,"count":404,"max":[5.73603535,0.0204089358,2.83092928],"min":[0.0107104778,-1.46844721,0.004272461],"type":"VEC3","name":"accessorTargetPositions"},{"bufferView":1,"byteOffset":113592,"componentType":5126,"count":404,"max":[4.21894026,0.01868164,2.19524527],"min":[0.0116589069,-2.04214,0.004682541],"type":"VEC3","name":"accessorTargetPositions"},{"bufferView":1,"byteOffset":118440,"componentType":5126,"count":404,"max":[2.385288,0.01876953,1.42043614],"min":[0.0103976727,-2.66176,0.004172325],"type":"VEC3","name":"accessorTargetPositions"},{"bufferView":1,"byteOffset":123288,"componentType":5126,"count":404,"max":[0.718421,0.0182171632,0.799474],"min":[0.0122144222,-3.02810359,0.004878998],"type":"VEC3","name":"accessorTargetPositions"},{"bufferView":1,"byteOffset":128136,"componentType":5126,"count":404,"max":[9.536743E-07,0.000242309558,0.5495198],"min":[-0.0515450537,-2.96796632,-1.90734863E-06],"type":"VEC3","name":"accessorTargetPositions"},{"bufferView":0,"byteOffset":33864,"componentType":5123,"count":60888,"type":"SCALAR","name":"accessorIndices"},{"bufferView":1,"byteOffset":132984,"componentType":5126,"count":16283,"max":[2.496396,27.6071873,10.3291626],"min":[-2.496396,-0.7429426,-13.354187],"type":"VEC3","name":"accessorPositions"},{"bufferView":1,"byteOffset":328380,"componentType":5126,"count":16283,"type":"VEC3","name":"accessorNormals"},{"bufferView":2,"byteOffset":28168,"componentType":5126,"count":16283,"type":"VEC2","name":"accessorUVs"},{"bufferView":0,"byteOffset":155640,"componentType":5123,"count":10074,"type":"SCALAR","name":"accessorIndices"},{"bufferView":1,"byteOffset":523776,"componentType":5126,"count":2279,"max":[0.1970644,2.30121827,27.9366016],"min":[-7.705808,-2.30121827,0.5680639],"type":"VEC3","name":"accessorPositions"},{"bufferView":1,"byteOffset":551124,"componentType":5126,"count":2279,"type":"VEC3","name":"accessorNormals"},{"bufferView":2,"byteOffset":158432,"componentType":5126,"count":2279,"type":"VEC2","name":"accessorUVs"},{"bufferView":1,"byteOffset":578472,"componentType":5126,"count":2279,"max":[8.428097E-05,0.000191353261,0.000113487244],"min":[-0.00258779526,-0.0069372654,-0.0005130768],"type":"VEC3","name":"accessorTargetPositions"},{"bufferView":1,"byteOffset":605820,"componentType":5126,"count":2279,"max":[0.001180768,0.00268805772,0.00144433975],"min":[-0.03654957,-0.09417021,-0.00682449341],"type":"VEC3","name":"accessorTargetPositions"},{"bufferView":1,"byteOffset":633168,"componentType":5126,"count":2279,"max":[0.00518357754,0.0119147561,0.00527763367],"min":[-0.151682377,-0.4003657,-0.0266017914],"type":"VEC3","name":"accessorTargetPositions"},{"bufferView":1,"byteOffset":660516,"componentType":5126,"count":2279,"max":[0.0142647624,0.03271918,0.0104036331],"min":[-0.323642731,-1.05984938,-0.05659294],"type":"VEC3","name":"accessorTargetPositions"},{"bufferView":1,"byteOffset":687864,"componentType":5126,"count":2279,"max":[0.03151512,0.06840334,0.013402462],"min":[-0.427248955,-2.12628579,-0.07279396],"type":"VEC3","name":"accessorTargetPositions"},{"bufferView":1,"byteOffset":715212,"componentType":5126,"count":2279,"max":[0.05458939,0.104087517,0.0126991272],"min":[-0.339744568,-3.19055033,-0.05627823],"type":"VEC3","name":"accessorTargetPositions"},{"bufferView":1,"byteOffset":742560,"componentType":5126,"count":2279,"max":[0.0728911161,0.124891981,0.0116205215],"min":[-0.197065353,-3.843345,-0.0301818848],"type":"VEC3","name":"accessorTargetPositions"},{"bufferView":1,"byteOffset":769908,"componentType":5126,"count":2279,"max":[0.08225298,0.1341187,0.0132119656],"min":[-0.124043226,-4.1455636,-0.01843071],"type":"VEC3","name":"accessorTargetPositions"},{"bufferView":1,"byteOffset":797256,"componentType":5126,"count":2279,"max":[0.0965082645,0.13661541,0.0137637854],"min":[-0.107192039,-4.231147,-0.01508522],"type":"VEC3","name":"accessorTargetPositions"},{"bufferView":1,"byteOffset":824604,"componentType":5126,"count":2279,"max":[0.0980370045,0.136806771,0.0138070583],"min":[-0.105865955,-4.23792553,-0.0148086548],"type":"VEC3","name":"accessorTargetPositions"},{"bufferView":3,"componentType":5126,"count":2,"max":[80.0],"min":[0.0],"type":"SCALAR","name":"accessorAnimationInput"},{"bufferView":3,"byteOffset":8,"componentType":5126,"count":20,"type":"SCALAR","name":"accessorAnimationWeights"},{"bufferView":3,"byteOffset":88,"componentType":5126,"count":2,"max":[80.0],"min":[0.0],"type":"SCALAR","name":"accessorAnimationInput"},{"bufferView":3,"byteOffset":96,"componentType":5126,"count":20,"type":"SCALAR","name":"accessorAnimationWeights"}],"bufferViews":[{"buffer":0,"byteLength":175788,"name":"bufferViewScalar"},{"buffer":0,"byteOffset":175788,"byteLength":851952,"byteStride":12,"name":"bufferViewFloatVec3"},{"buffer":0,"byteOffset":1027740,"byteLength":176664,"byteStride":8,"name":"bufferViewFloatVec2"},{"buffer":0,"byteOffset":1204404,"byteLength":176,"name":"bufferViewAnimationFloatScalar"}],"buffers":[{"uri":"AC75_2020_TNZ.bin","byteLength":1204580}],"materials":[{"pbrMetallicRoughness":{"baseColorTexture":{"index":1},"metallicRoughnessTexture":{"index":2}},"normalTexture":{"index":0},"name":"AC75_ETNZ_SR_PBS"},{"pbrMetallicRoughness":{"baseColorTexture":{"index":1},"metallicRoughnessTexture":{"index":2}},"normalTexture":{"index":0},"name":"AC75_ETNZ_sails_SR_PBS"}],"textures":[{"sampler":0,"source":0,"name":"AC75_2020_ETNZ_boat2_N.png"},{"sampler":0,"source":1,"name":"AC75_2020_ETNZ_boat2_ws.png"},{"sampler":0,"source":2,"name":"AC75_2020_ETNZ_boat2_ORM.png"}],"images":[{"uri":"AC75_2020_ETNZ_boat2_N.png"},{"uri":"AC75_2020_ETNZ_boat2_ws.png"},{"uri":"AC75_2020_ETNZ_boat2_ORM.png"}],"samplers":[{"magFilter":9729,"minFilter":9987}],"animations":[{"channels":[{"sampler":0,"target":{"node":11,"path":"weights"}},{"sampler":1,"target":{"node":13,"path":"weights"}}],"samplers":[{"input":60,"interpolation":0,"output":61},{"input":62,"interpolation":0,"output":63}],"name":"All Animations"}]}