{"asset":{"version":"2.0","generator":"babylon.js glTF exporter for Maya 2018 v20200225.2"},"scene":0,"scenes":[{"nodes":[0,14],"extensions":{}}],"nodes":[{"children":[1,5,9,11,12,13],"rotation":[-0.5,0.5,0.5,0.5],"name":"AC75_AM_babylon_New"},{"children":[2,3,4],"translation":[1.5,2.05,0.52],"name":"B_AM_PrtFo_piv"},{"mesh":0,"translation":[-0.0017990903,0.0,-8.087619E-05],"name":"B_AM_PrtFoilHinge","extras":{"currentUVSet":"map1","UDP3DSMAX":"MapChannel:1 = map1&cr;&lf;","MaxHandle":1029}},{"mesh":1,"translation":[-0.00141823094,0.0,-8.087619E-05],"name":"B_AM_Prttopringer","extras":{"MaxHandle":1736}},{"mesh":2,"translation":[10.997818,-2.05000019,-0.520080864],"name":"B_AM_PrtFoil","extras":{"currentUVSet":"map1","UDP3DSMAX":"MapChannel:1 = map1&cr;&lf;","MaxHandle":1030}},{"children":[6,7,8],"translation":[1.5,-2.05,0.52],"name":"B_AM_StbFo_piv"},{"mesh":3,"translation":[-0.00103737158,2.842171E-16,-8.087619E-05],"rotation":[0.0,0.0,1.0,6.123234E-17],"name":"B_AM_StbFoilHinge","extras":{"currentUVSet":"map1","UDP3DSMAX":"MapChannel:1 = map1&cr;&lf;","MaxHandle":1029}},{"mesh":4,"translation":[-0.00141823094,2.84210576E-16,-8.087619E-05],"rotation":[0.0,0.0,1.0,6.123234E-17],"name":"B_AM_Stbtopringer","extras":{"MaxHandle":1736}},{"mesh":5,"translation":[-11.0006552,2.05000019,-0.520080864],"rotation":[0.0,0.0,1.0,6.123234E-17],"name":"B_AM_StbFoil","extras":{"currentUVSet":"map1","UDP3DSMAX":"MapChannel:1 = map1&cr;&lf;","MaxHandle":1030}},{"children":[10],"translation":[-8.969931,0.0,0.0],"name":"B_AM_Rudder_piv"},{"mesh":6,"translation":[-0.5300696,0.0,0.0],"name":"B_AM_rudder","extras":{"currentUVSet":"map1","UDP3DSMAX":"MapChannel:1 = map1&cr;&lf;","MaxHandle":1032}},{"mesh":7,"name":"B_AM_jibBlend_00","extras":{"MaxHandle":1650}},{"mesh":8,"name":"B_AM_mainsail_curl_sweep_00"},{"mesh":9,"rotation":[0.5,-0.5,-0.5,0.5],"name":"B_AM_MERGED"},{"name":"Default light"}],"meshes":[{"primitives":[{"attributes":{"POSITION":1,"NORMAL":2,"TEXCOORD_0":3},"indices":0,"material":0}],"name":"B_AM_PrtFoilHinge"},{"primitives":[{"attributes":{"POSITION":5,"NORMAL":6,"TEXCOORD_0":7},"indices":4,"material":0}],"name":"B_AM_Prttopringer"},{"primitives":[{"attributes":{"POSITION":9,"NORMAL":10,"TEXCOORD_0":11},"indices":8,"material":0}],"name":"B_AM_PrtFoil"},{"primitives":[{"attributes":{"POSITION":13,"NORMAL":14,"TEXCOORD_0":15},"indices":12,"material":0}],"name":"B_AM_StbFoilHinge"},{"primitives":[{"attributes":{"POSITION":17,"NORMAL":18,"TEXCOORD_0":19},"indices":16,"material":0}],"name":"B_AM_Stbtopringer"},{"primitives":[{"attributes":{"POSITION":21,"NORMAL":22,"TEXCOORD_0":23},"indices":20,"material":0}],"name":"B_AM_StbFoil"},{"primitives":[{"attributes":{"POSITION":25,"NORMAL":26,"TEXCOORD_0":27},"indices":24,"material":0}],"name":"B_AM_rudder"},{"primitives":[{"attributes":{"POSITION":29,"NORMAL":30,"TEXCOORD_0":31},"indices":28,"material":1,"targets":[{"POSITION":32},{"POSITION":33},{"POSITION":34},{"POSITION":35},{"POSITION":36},{"POSITION":37},{"POSITION":38},{"POSITION":39},{"POSITION":40},{"POSITION":41}]}],"weights":[0.0,0.0,0.0,0.0,0.0,0.0,0.0,0.0,0.0,0.0],"name":"B_AM_jibBlend_00"},{"primitives":[{"attributes":{"POSITION":43,"NORMAL":44,"TEXCOORD_0":45},"indices":42,"material":1,"targets":[{"POSITION":46},{"POSITION":47},{"POSITION":48},{"POSITION":49},{"POSITION":50},{"POSITION":51},{"POSITION":52},{"POSITION":53},{"POSITION":54},{"POSITION":55}]}],"weights":[0.0,0.0,0.0,0.0,0.0,0.0,0.0,0.0,0.0,0.0],"name":"B_AM_mainsail_curl_sweep_00"},{"primitives":[{"attributes":{"POSITION":57,"NORMAL":58,"TEXCOORD_0":59},"indices":56,"material":0}],"name":"B_AM_MERGED"}],"accessors":[{"bufferView":0,"componentType":5123,"count":1200,"type":"SCALAR","name":"accessorIndices"},{"bufferView":1,"componentType":5126,"count":250,"max":[0.725081742,0.175133049,0.175132588],"min":[-0.723559558,-0.175131992,-0.175132677],"type":"VEC3","name":"accessorPositions"},{"bufferView":1,"byteOffset":3000,"componentType":5126,"count":250,"type":"VEC3","name":"accessorNormals"},{"bufferView":2,"componentType":5126,"count":250,"type":"VEC2","name":"accessorUVs"},{"bufferView":0,"byteOffset":2400,"componentType":5123,"count":120,"type":"SCALAR","name":"accessorIndices"},{"bufferView":1,"byteOffset":6000,"componentType":5126,"count":42,"max":[0.223296985,0.399923444,0.3999351],"min":[-0.132526428,-0.3999547,-0.3999432],"type":"VEC3","name":"accessorPositions"},{"bufferView":1,"byteOffset":6504,"componentType":5126,"count":42,"type":"VEC3","name":"accessorNormals"},{"bufferView":2,"byteOffset":2000,"componentType":5126,"count":42,"type":"VEC2","name":"accessorUVs"},{"bufferView":0,"byteOffset":2640,"componentType":5123,"count":5964,"type":"SCALAR","name":"accessorIndices"},{"bufferView":1,"byteOffset":7008,"componentType":5126,"count":1205,"max":[-9.937141,7.319019,0.4865534],"min":[-11.5555162,2.13120055,-2.73430133],"type":"VEC3","name":"accessorPositions"},{"bufferView":1,"byteOffset":21468,"componentType":5126,"count":1205,"type":"VEC3","name":"accessorNormals"},{"bufferView":2,"byteOffset":2336,"componentType":5126,"count":1205,"type":"VEC2","name":"accessorUVs"},{"bufferView":0,"byteOffset":14568,"componentType":5123,"count":1200,"type":"SCALAR","name":"accessorIndices"},{"bufferView":1,"byteOffset":35928,"componentType":5126,"count":250,"max":[0.724321246,0.175133049,0.175132588],"min":[-0.724320054,-0.175131992,-0.175132677],"type":"VEC3","name":"accessorPositions"},{"bufferView":1,"byteOffset":38928,"componentType":5126,"count":250,"type":"VEC3","name":"accessorNormals"},{"bufferView":2,"byteOffset":11976,"componentType":5126,"count":250,"type":"VEC2","name":"accessorUVs"},{"bufferView":0,"byteOffset":16968,"componentType":5123,"count":120,"type":"SCALAR","name":"accessorIndices"},{"bufferView":1,"byteOffset":41928,"componentType":5126,"count":42,"max":[0.132526428,0.399923444,0.3999351],"min":[-0.223296985,-0.3999547,-0.3999432],"type":"VEC3","name":"accessorPositions"},{"bufferView":1,"byteOffset":42432,"componentType":5126,"count":42,"type":"VEC3","name":"accessorNormals"},{"bufferView":2,"byteOffset":13976,"componentType":5126,"count":42,"type":"VEC2","name":"accessorUVs"},{"bufferView":0,"byteOffset":17208,"componentType":5123,"count":5964,"type":"SCALAR","name":"accessorIndices"},{"bufferView":1,"byteOffset":42936,"componentType":5126,"count":1205,"max":[-10.4429579,7.319019,0.4865534],"min":[-12.0613327,2.13120055,-2.73430133],"type":"VEC3","name":"accessorPositions"},{"bufferView":1,"byteOffset":57396,"componentType":5126,"count":1205,"type":"VEC3","name":"accessorNormals"},{"bufferView":2,"byteOffset":14312,"componentType":5126,"count":1205,"type":"VEC2","name":"accessorUVs"},{"bufferView":0,"byteOffset":29136,"componentType":5123,"count":3330,"type":"SCALAR","name":"accessorIndices"},{"bufferView":1,"byteOffset":71856,"componentType":5126,"count":676,"max":[0.5396668,1.29111111,0.01875061],"min":[0.0876378,-1.29111075,-2.895447],"type":"VEC3","name":"accessorPositions"},{"bufferView":1,"byteOffset":79968,"componentType":5126,"count":676,"type":"VEC3","name":"accessorNormals"},{"bufferView":2,"byteOffset":23952,"componentType":5126,"count":676,"type":"VEC2","name":"accessorUVs"},{"bufferView":0,"byteOffset":35796,"componentType":5123,"count":2010,"type":"SCALAR","name":"accessorIndices"},{"bufferView":1,"byteOffset":88080,"componentType":5126,"count":404,"max":[7.91021967,1.48398316,23.7854443],"min":[-1.26576054,-0.0001208496,1.32566857],"type":"VEC3","name":"accessorPositions"},{"bufferView":1,"byteOffset":92928,"componentType":5126,"count":404,"type":"VEC3","name":"accessorNormals"},{"bufferView":2,"byteOffset":29360,"componentType":5126,"count":404,"type":"VEC2","name":"accessorUVs"},{"bufferView":1,"byteOffset":97776,"componentType":5126,"count":404,"max":[0.7184204,0.118077993,0.285905123],"min":[0.0122144222,-0.5351703,0.004880905],"type":"VEC3","name":"accessorTargetPositions"},{"bufferView":1,"byteOffset":102624,"componentType":5126,"count":404,"max":[2.385288,0.298126936,0.9539795],"min":[0.0103981495,-1.288733,0.004172325],"type":"VEC3","name":"accessorTargetPositions"},{"bufferView":1,"byteOffset":107472,"componentType":5126,"count":404,"max":[4.260341,0.390241742,1.71130252],"min":[0.011660099,-1.5044415,0.00468444824],"type":"VEC3","name":"accessorTargetPositions"},{"bufferView":1,"byteOffset":112320,"componentType":5126,"count":404,"max":[5.787553,-0.0139782708,2.3306725],"min":[0.0107104778,-1.50308108,0.004272461],"type":"VEC3","name":"accessorTargetPositions"},{"bufferView":1,"byteOffset":117168,"componentType":5126,"count":404,"max":[6.296683,0.0232562255,2.49143672],"min":[0.007965088,-1.47181642,0.003168106],"type":"VEC3","name":"accessorTargetPositions"},{"bufferView":1,"byteOffset":122016,"componentType":5126,"count":404,"max":[5.787554,0.0204089358,2.3306725],"min":[0.0107104778,-1.46844721,0.004272461],"type":"VEC3","name":"accessorTargetPositions"},{"bufferView":1,"byteOffset":126864,"componentType":5126,"count":404,"max":[4.260341,0.01868164,1.71130252],"min":[0.0116589069,-2.04214,0.004682541],"type":"VEC3","name":"accessorTargetPositions"},{"bufferView":1,"byteOffset":131712,"componentType":5126,"count":404,"max":[2.385288,0.01876953,0.9539795],"min":[0.0103976727,-2.66176,0.004172325],"type":"VEC3","name":"accessorTargetPositions"},{"bufferView":1,"byteOffset":136560,"componentType":5126,"count":404,"max":[0.718421,0.0182171632,0.285905123],"min":[0.0122144222,-3.02810359,0.004878998],"type":"VEC3","name":"accessorTargetPositions"},{"bufferView":1,"byteOffset":141408,"componentType":5126,"count":404,"max":[9.536743E-07,0.000242309558,3.81469727E-06],"min":[-9.536743E-07,-2.96796632,-1.90734863E-06],"type":"VEC3","name":"accessorTargetPositions"},{"bufferView":0,"byteOffset":39816,"componentType":5123,"count":10074,"type":"SCALAR","name":"accessorIndices"},{"bufferView":1,"byteOffset":146256,"componentType":5126,"count":2279,"max":[0.167362109,2.30121827,27.9366016],"min":[-7.705808,-2.30121827,0.8583546],"type":"VEC3","name":"accessorPositions"},{"bufferView":1,"byteOffset":173604,"componentType":5126,"count":2279,"type":"VEC3","name":"accessorNormals"},{"bufferView":2,"byteOffset":32592,"componentType":5126,"count":2279,"type":"VEC2","name":"accessorUVs"},{"bufferView":1,"byteOffset":200952,"componentType":5126,"count":2279,"max":[0.233783573,0.0298551619,0.000113487244],"min":[-0.00258779526,-0.0298501924,-0.0005130768],"type":"VEC3","name":"accessorTargetPositions"},{"bufferView":1,"byteOffset":228300,"componentType":5126,"count":2279,"max":[0.233880773,0.02998083,0.00144433975],"min":[-0.03654957,-0.09417021,-0.00682449341],"type":"VEC3","name":"accessorTargetPositions"},{"bufferView":1,"byteOffset":255648,"componentType":5126,"count":2279,"max":[0.23420766,0.0304145217,0.00527763367],"min":[-0.151682377,-0.4003657,-0.0266017914],"type":"VEC3","name":"accessorTargetPositions"},{"bufferView":1,"byteOffset":282996,"componentType":5126,"count":2279,"max":[0.234900281,0.03271918,0.0104036331],"min":[-0.323642731,-1.05984938,-0.05659294],"type":"VEC3","name":"accessorTargetPositions"},{"bufferView":1,"byteOffset":310344,"componentType":5126,"count":2279,"max":[0.238137424,0.06840334,0.013402462],"min":[-0.427248955,-2.12628579,-0.07279396],"type":"VEC3","name":"accessorTargetPositions"},{"bufferView":1,"byteOffset":337692,"componentType":5126,"count":2279,"max":[0.241560683,0.104087517,0.0126991272],"min":[-0.339744568,-3.19055033,-0.05627823],"type":"VEC3","name":"accessorTargetPositions"},{"bufferView":1,"byteOffset":365040,"componentType":5126,"count":2279,"max":[0.244306952,0.124891981,0.0116205215],"min":[-0.197065353,-3.843345,-0.0301818848],"type":"VEC3","name":"accessorTargetPositions"},{"bufferView":1,"byteOffset":392388,"componentType":5126,"count":2279,"max":[0.245465875,0.1341187,0.0132119656],"min":[-0.124043226,-4.1455636,-0.01843071],"type":"VEC3","name":"accessorTargetPositions"},{"bufferView":1,"byteOffset":419736,"componentType":5126,"count":2279,"max":[0.245773166,0.13661541,0.0137637854],"min":[-0.107192039,-4.231147,-0.01508522],"type":"VEC3","name":"accessorTargetPositions"},{"bufferView":1,"byteOffset":447084,"componentType":5126,"count":2279,"max":[0.2457966,0.136806771,0.0138070583],"min":[-0.105865955,-4.23792553,-0.0148086548],"type":"VEC3","name":"accessorTargetPositions"},{"bufferView":0,"byteOffset":59964,"componentType":5123,"count":55278,"type":"SCALAR","name":"accessorIndices"},{"bufferView":1,"byteOffset":474432,"componentType":5126,"count":15908,"max":[2.48517656,27.6071873,10.3346272],"min":[-2.48517656,-0.5442274,-13.3507519],"type":"VEC3","name":"accessorPositions"},{"bufferView":1,"byteOffset":665328,"componentType":5126,"count":15908,"type":"VEC3","name":"accessorNormals"},{"bufferView":2,"byteOffset":50824,"componentType":5126,"count":15908,"type":"VEC2","name":"accessorUVs"},{"bufferView":3,"componentType":5126,"count":2,"max":[80.0],"min":[0.0],"type":"SCALAR","name":"accessorAnimationInput"},{"bufferView":3,"byteOffset":8,"componentType":5126,"count":20,"type":"SCALAR","name":"accessorAnimationWeights"},{"bufferView":3,"byteOffset":88,"componentType":5126,"count":2,"max":[80.0],"min":[0.0],"type":"SCALAR","name":"accessorAnimationInput"},{"bufferView":3,"byteOffset":96,"componentType":5126,"count":20,"type":"SCALAR","name":"accessorAnimationWeights"}],"bufferViews":[{"buffer":0,"byteLength":170520,"name":"bufferViewScalar"},{"buffer":0,"byteOffset":170520,"byteLength":856224,"byteStride":12,"name":"bufferViewFloatVec3"},{"buffer":0,"byteOffset":1026744,"byteLength":178088,"byteStride":8,"name":"bufferViewFloatVec2"},{"buffer":0,"byteOffset":1204832,"byteLength":176,"name":"bufferViewAnimationFloatScalar"}],"buffers":[{"uri":"AC75_AM.bin","byteLength":1205008}],"materials":[{"pbrMetallicRoughness":{"baseColorTexture":{"index":1},"metallicRoughnessTexture":{"index":2}},"normalTexture":{"index":0},"name":"AC75_AM_SR_PBS"},{"pbrMetallicRoughness":{"baseColorTexture":{"index":1},"metallicRoughnessTexture":{"index":2}},"normalTexture":{"index":0},"alphaMode":"BLEND","name":"AC75_AM_Sails_SR_PBS","extras":{"use_opacity_map":{"resultType":5,"stringResult":""},"opacity":{"resultType":5,"stringResult":""}}}],"textures":[{"sampler":0,"source":0,"name":"AC75_2020_AM_Boat2_N.png"},{"sampler":0,"source":1,"name":"AC75_2020_AM_boat2B_pc.png"},{"sampler":0,"source":2,"name":"AC75_2020_AM_boat2_ORM.png"}],"images":[{"uri":"AC75_2020_AM_Boat2_N.png"},{"uri":"AC75_2020_AM_boat2B_pc.png"},{"uri":"AC75_2020_AM_boat2_ORM.png"}],"samplers":[{"magFilter":9729,"minFilter":9987}],"animations":[{"channels":[{"sampler":0,"target":{"node":11,"path":"weights"}},{"sampler":1,"target":{"node":12,"path":"weights"}}],"samplers":[{"input":60,"interpolation":0,"output":61},{"input":62,"interpolation":0,"output":63}],"name":"All Animations"}]}